<svg width="16" height="16" viewBox="0 0 16 16" fill="none" xmlns="http://www.w3.org/2000/svg">
<path d="M8.86673 7.013C9.96607 7.149 10.8047 7.523 11.3827 8.135C11.9607 8.747 12.2497 9.512 12.2497 10.43C12.2497 11.1213 12.0741 11.7503 11.7227 12.317C11.3714 12.8837 10.8387 13.337 10.1247 13.677C9.42207 14.0057 8.56073 14.17 7.54073 14.17C6.69073 14.17 5.86907 14.051 5.07573 13.813C4.29373 13.5637 3.62507 13.2237 3.06973 12.793L4.02173 11.076C4.4524 11.4387 4.97373 11.7277 5.58573 11.943C6.20907 12.147 6.8494 12.249 7.50673 12.249C8.28873 12.249 8.90073 12.0903 9.34273 11.773C9.79607 11.4443 10.0227 11.0023 10.0227 10.447C10.0227 9.89167 9.8074 9.461 9.37673 9.155C8.9574 8.83767 8.3114 8.679 7.43873 8.679H6.35073V7.166L9.05373 3.953H3.64773V2.1H11.7567V3.579L8.86673 7.013Z" fill="black"/>
</svg>
