<svg width="16" height="16" viewBox="0 0 16 16" fill="none" xmlns="http://www.w3.org/2000/svg">
<rect width="16" height="16" fill="#0D1117"/>
<path d="M9.26477 7.0352C10.2348 7.1552 10.9748 7.48519 11.4848 8.02519C11.9948 8.5652 12.2498 9.2402 12.2498 10.0502C12.2498 10.6602 12.0948 11.2152 11.7848 11.7152C11.4748 12.2152 11.0048 12.6152 10.3748 12.9152C9.75477 13.2052 8.99477 13.3502 8.09477 13.3502C7.34477 13.3502 6.61977 13.2452 5.91977 13.0352C5.22977 12.8152 4.63977 12.5152 4.14977 12.1352L4.98977 10.6202C5.36977 10.9402 5.82977 11.1952 6.36977 11.3852C6.91977 11.5652 7.48477 11.6552 8.06477 11.6552C8.75477 11.6552 9.29477 11.5152 9.68477 11.2352C10.0848 10.9452 10.2848 10.5552 10.2848 10.0652C10.2848 9.5752 10.0948 9.1952 9.71477 8.92519C9.34477 8.64519 8.77477 8.50519 8.00477 8.50519H7.04477V7.1702L9.42977 4.3352H4.65977V2.70019H11.8148V4.00519L9.26477 7.0352Z" fill="#F0F6FC"/>
</svg>
