<svg width="414" height="1300" viewBox="0 0 414 1300" fill="none" xmlns="http://www.w3.org/2000/svg">
<g filter="url(#filter0_d_5_3)">
<path d="M215.872 16.326C212.372 17.126 209.372 17.926 209.172 18.026C208.972 18.226 210.872 21.726 213.372 25.826C218.972 35.326 220.072 39.126 218.672 44.326L217.572 48.226L215.472 45.326C208.172 34.826 195.672 26.426 183.972 23.926C163.972 19.726 146.072 27.826 159.772 34.826C168.372 39.226 174.272 50.826 173.472 61.826C173.272 65.426 172.272 69.926 171.272 71.926C169.672 75.226 169.072 75.626 164.372 76.226C155.972 77.226 152.772 76.926 141.472 74.426C118.372 69.126 101.672 70.226 85.9717 77.926C67.7717 86.826 52.3717 106.926 46.1717 129.826C44.9717 134.426 44.4717 140.126 44.3717 149.526C44.3717 156.826 43.9717 162.826 43.4717 162.826C42.9717 162.826 39.4717 161.126 35.6717 159.026L28.7717 155.326L23.6717 160.526L18.4717 165.726L21.5717 169.326L24.7717 172.926L19.6717 177.126C13.2717 182.326 8.37175 190.326 6.17175 198.726C3.07175 211.126 5.37175 218.026 22.2717 246.826C47.0717 289.026 56.8717 305.926 57.4717 307.426C57.7717 308.426 55.7717 311.026 51.3717 315.226C40.2717 325.926 35.3717 339.826 37.6717 354.126C40.9717 374.026 55.1717 388.326 72.9717 389.626C81.9717 390.226 87.4717 388.226 92.5717 382.126L96.4717 377.626L99.1717 382.226C100.672 384.726 105.572 393.726 110.172 402.126C114.672 410.426 121.672 423.226 125.672 430.426C138.172 453.226 157.272 498.026 155.072 499.726C150.072 503.926 136.872 511.726 126.772 516.526C119.872 519.826 111.772 524.026 108.672 526.026L103.072 529.626L102.472 551.526C102.172 565.126 102.472 581.426 103.372 594.826C104.172 606.626 105.172 640.126 105.672 669.326C106.572 721.226 106.572 722.326 104.672 724.426C102.072 727.226 101.272 732.726 102.672 738.426C103.472 741.426 103.872 752.726 103.872 769.726C103.872 806.726 102.072 826.626 95.5717 861.126C91.6717 882.026 91.8717 882.826 101.772 892.126C108.372 898.326 108.672 898.826 108.072 902.026C106.572 909.826 106.372 910.026 101.372 911.326C92.5717 913.626 89.5717 917.126 87.6717 927.526C85.0717 941.126 88.4717 950.626 97.3717 954.826C107.672 959.626 123.072 964.126 129.772 964.226C137.872 964.326 141.572 962.626 150.372 954.726C154.672 950.826 157.672 948.826 159.372 948.826H161.872L161.272 972.026C160.972 984.826 160.272 1016.03 159.672 1041.33C158.872 1080.73 158.272 1090.13 156.172 1106.83C154.772 1117.53 153.872 1127.83 154.172 1129.73C154.472 1131.63 156.072 1134.83 157.772 1136.93C159.372 1139.03 160.772 1141.63 160.772 1142.73C160.772 1145.53 156.972 1148.83 153.572 1148.83C149.672 1148.83 140.272 1152.53 136.772 1155.43C135.172 1156.83 132.972 1159.43 131.772 1161.33C127.972 1167.53 122.672 1201.83 124.872 1206.13C125.472 1207.33 128.072 1210.23 130.572 1212.53C134.472 1216.23 134.872 1217.03 133.672 1218.43C132.972 1219.33 126.272 1224.53 118.772 1230.13C101.372 1243.03 94.0717 1249.33 92.0717 1253.13C89.9717 1257.23 90.9717 1266.73 94.2717 1273.43C96.5717 1278.13 97.3717 1278.83 103.872 1281.73C132.372 1294.43 178.672 1298.03 200.772 1289.23C205.972 1287.13 209.372 1280.53 211.772 1267.63C212.872 1261.93 213.972 1256.33 214.272 1255.03C215.072 1251.83 218.372 1248.83 221.272 1248.83H223.772V1259.73C223.772 1271.23 224.872 1276.43 227.572 1277.23C231.972 1278.53 241.672 1279.83 246.572 1279.83C251.372 1279.83 252.272 1279.53 254.572 1276.63C256.072 1274.93 258.472 1272.13 259.972 1270.53L262.772 1267.63L270.472 1274.23C282.272 1284.43 283.672 1284.73 319.272 1286.43C335.772 1287.13 357.972 1288.13 368.572 1288.43L387.772 1289.13L391.672 1285.03C397.972 1278.43 400.472 1268.03 397.272 1261.83C395.472 1258.33 390.972 1255.83 381.272 1252.93C373.972 1250.83 344.572 1237.73 336.872 1233.13C331.072 1229.73 324.372 1223.63 319.772 1217.33L315.972 1212.23L317.872 1204.93C323.272 1183.63 319.772 1164.13 307.672 1148.13C305.572 1145.23 303.772 1142.03 303.772 1141.03C303.772 1137.43 308.272 1132.33 314.272 1129.13C323.972 1123.93 326.772 1119.23 326.772 1107.73C326.772 1104.53 328.072 1094.63 329.772 1085.73C332.672 1069.73 334.072 1056.33 337.272 1017.33C339.372 990.326 340.772 979.026 342.172 978.026C342.772 977.526 346.272 976.726 349.972 976.326C357.872 975.526 364.472 972.426 367.272 968.326C369.072 965.626 376.672 935.926 378.272 925.526C378.672 923.126 380.172 920.226 382.472 917.726L386.172 913.626L387.572 895.526C389.572 871.626 389.772 779.626 387.972 751.326C382.572 667.226 374.172 599.326 364.172 558.726C358.972 537.526 357.972 536.026 341.672 525.326C336.372 521.826 326.572 514.426 320.072 508.926C313.472 503.426 306.972 498.626 305.472 498.326C303.972 497.926 302.772 497.426 302.772 497.126C302.772 496.826 305.372 493.726 308.672 490.226C325.272 472.126 337.972 445.526 343.872 416.326C346.772 402.126 347.672 364.126 345.472 348.026L344.072 337.726L352.572 331.026C379.672 309.626 394.972 275.926 393.572 241.226C393.172 231.926 392.572 229.126 390.372 224.226C387.172 217.326 383.772 213.426 378.272 210.526C372.672 207.526 359.272 207.626 348.572 210.626C338.672 213.426 319.372 221.726 309.572 227.326C305.372 229.826 301.672 231.826 301.372 231.826C301.072 231.826 295.372 222.626 288.672 211.426C274.372 187.426 268.872 179.826 259.072 170.226C255.072 166.326 251.772 162.826 251.772 162.526C251.772 162.126 252.972 161.826 254.372 161.826C257.272 161.826 274.172 158.426 284.172 155.826C290.072 154.226 291.872 153.226 296.472 148.626C306.572 138.726 311.872 127.526 311.972 116.226C311.972 110.126 310.472 103.326 308.572 101.326C307.972 100.726 306.472 101.726 304.272 104.326L300.872 108.326L300.772 93.826C300.772 78.326 299.772 72.926 295.472 63.426C292.672 57.326 284.672 48.226 278.172 43.726L273.972 40.926L272.772 50.826C272.072 56.326 271.172 60.826 270.772 60.826C270.372 60.826 268.572 55.526 266.772 49.026C263.072 35.626 261.172 31.326 256.672 26.926C252.372 22.626 242.872 17.926 234.872 16.226C226.872 14.526 224.172 14.626 215.872 16.326ZM239.372 25.826C251.172 31.526 257.872 42.426 259.872 58.826C261.672 73.826 259.972 84.326 254.372 92.526C250.472 98.226 251.072 99.426 256.172 95.926C264.072 90.426 271.472 78.226 276.172 62.726C277.572 58.026 278.772 53.426 278.772 52.526C278.772 49.626 280.472 50.626 284.172 55.726C297.372 73.626 299.372 99.526 288.872 116.026C287.172 118.626 286.272 121.026 286.772 121.326C287.272 121.626 290.372 121.226 293.672 120.326C302.772 118.026 303.072 118.126 302.272 123.026C300.372 134.826 292.472 145.126 282.972 148.226C267.672 153.226 227.172 154.626 192.272 151.426C148.372 147.526 137.372 147.526 123.672 151.726C111.772 155.426 97.5717 165.626 96.1717 171.526C95.1717 175.426 96.3717 175.326 101.372 170.926C115.472 158.526 134.772 153.626 160.272 155.826C166.872 156.426 186.372 158.026 203.672 159.326L235.172 161.826L239.572 166.026C251.572 177.626 282.572 220.226 288.672 233.526L291.072 238.726L286.172 243.226L281.272 247.726L279.272 245.026C274.972 239.126 263.972 229.126 259.372 226.826C254.172 224.326 246.572 223.126 242.372 224.226C240.972 224.526 238.272 226.226 236.372 227.826L232.972 230.926L226.772 227.726C212.172 220.326 198.772 225.426 192.372 240.926C191.572 242.826 190.172 247.526 189.372 251.226C184.472 272.326 187.872 288.726 199.472 300.026C206.172 306.526 212.472 309.226 221.272 309.226C225.172 309.226 229.172 308.726 230.272 308.126C233.072 306.626 235.472 308.126 236.272 311.926C236.672 313.626 237.372 314.626 237.772 314.126C238.272 313.726 240.972 308.726 243.772 303.026C253.472 283.626 264.572 271.426 287.972 253.926C313.472 235.026 327.572 227.726 350.172 221.726C368.972 216.826 374.972 218.126 380.172 228.226C382.772 233.226 383.172 235.226 383.572 244.726C385.272 286.226 356.172 325.326 313.172 339.226C296.372 344.726 277.372 346.826 266.572 344.526L259.872 343.126L261.572 345.626C264.572 350.226 280.972 355.726 291.572 355.826C295.072 355.826 295.772 356.126 295.772 357.826C295.772 358.826 297.572 365.426 299.772 372.326C301.972 379.226 303.772 385.926 303.772 387.226C303.772 389.226 302.572 390.026 295.972 392.626C282.672 397.926 274.772 399.326 259.272 399.326C250.972 399.326 242.972 398.826 239.772 398.026C207.172 390.126 188.772 374.926 188.772 355.826C188.772 351.226 189.072 350.526 192.872 347.126C196.472 343.826 196.772 343.326 195.272 342.226C192.672 340.326 184.272 339.526 180.472 340.726C176.072 342.226 171.972 346.526 171.172 350.626C170.372 354.426 170.672 354.426 178.272 351.826C181.472 350.726 184.172 349.926 184.272 350.026C184.472 350.226 185.272 356.626 186.172 364.326C189.372 391.226 194.372 407.826 203.672 422.126C214.772 438.926 228.572 446.526 246.672 445.626C257.972 445.026 264.272 442.426 265.572 437.626L266.372 434.326L259.672 433.526C253.372 432.726 252.872 432.426 251.872 429.626C250.172 424.926 250.572 418.426 252.772 412.426L254.872 407.026L264.572 406.326C283.872 404.926 295.372 401.726 306.072 394.526C313.572 389.426 313.572 389.326 307.872 374.626C305.572 368.726 303.472 361.926 303.172 359.526L302.572 355.126L307.172 353.926C309.772 353.326 316.372 350.726 321.972 348.326C327.472 345.826 332.372 343.826 332.872 343.826C333.372 343.826 334.472 345.526 335.372 347.526C336.772 350.726 337.072 355.126 337.172 373.826C337.272 398.326 336.172 409.426 332.172 425.326C325.572 451.226 314.572 471.826 297.772 489.226C287.672 499.726 280.872 505.126 268.572 512.426C260.172 517.326 258.872 517.826 253.272 517.826C242.472 517.826 214.172 511.926 185.972 503.826C176.472 501.026 167.072 498.826 164.972 498.826C161.672 498.726 161.472 498.626 163.072 497.426C164.672 496.226 163.572 493.626 148.672 462.726C122.772 408.926 95.9717 356.326 91.2717 349.926C86.2717 343.126 79.1717 338.426 71.1717 336.826C65.6717 335.626 63.2717 336.126 62.3717 338.426C61.2717 341.226 63.6717 343.526 71.7717 347.726C76.1717 350.026 79.7717 352.326 79.7717 352.826C79.7717 353.226 77.9717 355.126 75.7717 356.826C73.4717 358.626 71.8717 360.526 72.0717 361.126C72.6717 363.126 76.3717 363.526 81.1717 362.026C85.8717 360.526 85.9717 360.526 87.7717 362.826C92.4717 369.026 92.7717 370.226 90.9717 373.926C88.6717 378.526 84.6717 380.326 76.7717 380.226C65.3717 380.126 56.4717 374.126 51.2717 363.226C44.0717 348.026 46.1717 334.426 57.2717 323.926C65.3717 316.226 67.9717 316.126 79.4717 322.826C86.0717 326.626 86.2717 326.726 87.0717 324.626C87.4717 323.426 87.3717 321.026 86.6717 319.126C84.9717 313.826 80.4717 311.126 67.1717 307.326C66.5717 307.126 61.3717 298.126 55.5717 287.126C42.6717 262.726 36.0717 252.026 24.1717 236.126C13.9717 222.426 12.0717 217.726 13.1717 208.526C14.0717 201.626 17.9717 193.226 22.5717 188.526C24.5717 186.426 31.7717 181.726 38.4717 178.026L50.7717 171.326V157.726C50.7717 135.726 54.4717 121.126 63.2717 107.726C71.2717 95.726 83.1717 86.826 96.5717 82.826C102.972 80.926 105.472 80.626 116.072 81.026C122.772 81.326 129.272 81.926 130.572 82.526C132.872 83.426 132.772 83.526 128.072 87.226L123.272 91.126L141.472 90.426C164.372 89.526 168.472 88.526 175.272 81.526C182.472 74.126 184.072 67.326 182.272 52.526C181.572 46.826 181.572 46.826 184.172 46.826C185.572 46.826 186.772 46.626 186.772 46.326C186.772 46.126 185.572 43.326 184.172 40.126C179.072 28.626 178.972 29.426 184.672 30.126C194.472 31.326 204.672 38.926 209.372 48.426C211.572 53.026 211.972 54.826 211.472 59.226C211.172 62.226 210.172 66.026 209.272 67.826C207.772 70.826 207.772 70.926 209.472 70.026C216.572 66.126 227.272 49.726 228.472 40.826C228.772 38.626 229.272 36.826 229.572 36.826C229.972 36.826 231.872 38.526 233.972 40.526C236.372 42.926 237.772 43.726 237.772 42.726C237.772 40.626 231.272 29.926 227.672 26.326C226.072 24.626 224.772 22.826 224.772 22.426C224.772 20.826 233.272 22.826 239.372 25.826ZM258.372 232.726C265.372 236.026 270.972 242.026 273.172 248.526L274.772 253.126L264.672 263.526C253.272 275.526 247.372 282.926 242.872 290.926C238.272 299.226 236.072 300.826 228.172 301.926C215.472 303.726 208.372 301.026 201.172 291.526C191.072 278.026 190.072 259.726 198.372 243.126C202.072 235.926 207.072 232.826 215.272 232.826C225.272 232.826 234.272 239.026 238.872 249.226L240.772 253.326V249.526C240.772 247.426 240.072 244.126 239.272 242.126C237.272 237.326 237.372 235.526 240.072 233.126C244.572 228.926 250.172 228.826 258.372 232.726ZM206.972 391.526C212.872 395.426 220.172 399.526 223.072 400.626C229.272 403.026 239.872 405.126 243.072 404.626C245.272 404.326 245.272 404.526 245.572 420.226L245.872 436.126L239.072 435.626C229.072 434.826 221.772 431.626 214.572 425.026C206.672 417.726 201.372 409.426 198.272 399.626C195.372 390.526 194.072 383.426 195.372 383.926C195.872 384.126 201.072 387.526 206.972 391.526ZM173.872 506.726C193.272 516.026 216.472 523.326 233.072 525.326C236.172 525.726 239.072 526.426 239.372 526.926C240.072 528.126 213.872 575.826 212.572 575.826C210.872 575.826 196.772 561.126 190.072 552.326C180.472 539.626 171.272 525.026 166.372 514.726C161.972 505.426 160.172 500.826 161.072 500.826C161.372 500.826 167.072 503.526 173.872 506.726ZM304.972 506.426C307.772 516.226 307.672 537.926 304.872 548.326C304.172 551.126 303.972 551.026 297.872 542.026C290.572 531.426 284.172 525.326 278.672 523.626C276.472 523.026 274.772 522.226 274.772 521.926C274.772 520.926 302.172 502.826 303.172 503.126C303.672 503.326 304.572 504.826 304.972 506.426ZM160.272 521.626C170.072 539.626 178.872 550.826 198.272 569.926L211.872 583.326L222.672 605.326C228.672 617.426 237.472 633.826 242.172 641.826C260.572 672.526 279.172 714.026 292.672 754.526C298.672 772.526 299.572 776.226 297.872 777.226C297.172 777.726 171.772 616.726 171.772 615.326C171.772 615.026 176.272 607.126 181.772 597.626C190.772 582.126 192.872 577.826 191.272 577.826C190.972 577.826 188.972 579.126 186.672 580.726C181.572 584.526 175.172 585.826 162.372 585.826C149.372 585.826 149.372 585.726 147.872 572.026C146.272 557.426 146.472 550.526 148.872 531.826C150.872 516.226 152.572 510.926 154.772 512.326C155.272 512.626 157.672 516.726 160.272 521.626ZM141.272 549.626C141.272 586.826 141.272 586.826 148.772 590.526C152.572 592.526 154.772 592.826 163.972 592.826C169.872 592.826 174.772 593.126 174.772 593.526C174.772 594.026 172.372 598.426 169.372 603.526L163.972 612.626L166.772 616.026C168.272 617.826 182.072 635.926 197.372 656.326C212.772 676.626 238.572 710.426 254.672 731.226C270.872 752.126 285.372 771.526 287.072 774.226C288.772 777.026 291.772 781.126 293.772 783.426L297.472 787.426L293.372 807.226L289.272 827.026L277.172 832.326C245.772 845.826 215.872 864.426 179.372 893.226L164.672 904.826L163.672 902.026C162.872 900.126 162.772 891.426 163.372 872.826C164.572 836.826 164.372 789.726 162.872 764.326C159.872 711.126 154.572 651.326 151.672 636.826C147.872 618.026 141.072 600.126 138.672 602.526C138.072 603.126 139.572 614.326 142.672 632.926C148.272 665.826 150.272 682.226 151.772 707.826C152.372 717.426 153.772 741.726 154.972 761.826C157.272 801.226 157.872 844.326 156.372 879.226L155.572 900.126L146.372 899.526C134.972 898.826 122.772 895.326 111.972 889.926C99.5717 883.726 99.5717 883.526 103.672 860.526C107.572 838.426 109.372 824.426 110.772 806.726C111.972 790.926 111.972 755.626 110.872 744.526C109.872 735.026 110.672 730.626 114.172 727.126C117.372 723.926 117.372 721.426 114.372 711.826C112.072 704.426 111.972 703.826 111.172 635.326C110.672 597.326 110.272 558.226 110.272 548.326V530.426L124.772 523.726C132.772 520.026 139.772 516.926 140.272 516.926C140.872 516.826 141.272 528.326 141.272 549.626ZM321.072 529.526C328.872 546.126 333.072 559.426 333.972 570.326L334.272 574.326L325.172 578.926L315.972 583.626L324.972 594.926C336.372 609.526 339.572 614.426 340.372 618.526C340.972 621.626 337.972 638.426 327.172 692.726C325.272 702.326 322.372 714.126 320.772 718.926C317.572 728.526 304.972 755.826 303.672 755.826C303.272 755.826 301.472 752.126 299.672 747.526C295.072 736.026 295.172 728.426 299.972 712.826C313.272 670.026 318.172 620.126 312.172 588.326C309.872 575.626 310.072 560.426 312.672 549.826C314.172 543.826 314.772 538.126 314.772 530.526C314.772 524.626 315.172 519.826 315.572 519.826C316.072 519.826 318.472 524.226 321.072 529.526ZM264.972 527.926C272.572 529.526 278.772 532.926 283.672 538.326C288.972 544.126 290.772 548.326 290.772 555.126C290.772 560.826 288.472 569.026 286.372 570.726C285.672 571.326 278.272 572.526 269.972 573.426C251.872 575.326 250.372 574.826 242.672 565.626C235.272 556.726 235.672 553.926 246.672 538.326C255.472 525.726 255.172 525.926 264.972 527.926ZM341.472 534.726C346.572 537.326 351.272 541.926 353.772 546.826C354.872 549.026 356.672 556.426 357.772 563.526C358.872 570.526 361.872 586.926 364.372 599.826C369.772 628.126 371.872 642.026 375.172 672.326C382.272 736.426 383.272 753.626 383.172 816.826C383.172 867.226 382.972 873.726 381.072 887.826C378.472 907.026 377.772 909.226 373.972 908.426C372.472 908.126 367.472 907.426 362.772 906.826C347.972 905.026 348.772 905.426 348.772 899.726C348.772 897.026 349.172 894.826 349.672 894.826C350.172 894.826 353.972 896.426 358.172 898.326C362.472 900.226 366.272 901.826 366.772 901.826C369.772 901.826 371.672 875.726 372.472 825.026C373.072 784.826 371.372 738.426 366.772 672.326C364.872 645.126 357.572 597.526 354.072 589.826L352.072 585.326L350.772 589.526C349.572 593.326 349.872 596.826 353.572 623.526C357.872 654.026 359.572 672.926 362.272 715.826C365.272 765.226 365.872 784.226 365.872 826.826C365.772 862.926 365.572 871.326 364.272 876.326C363.372 879.526 362.472 882.526 362.172 882.826C361.872 883.126 360.672 882.226 359.572 880.826C358.472 879.426 352.872 873.126 347.172 866.826C331.072 848.826 318.572 838.726 303.972 831.626C299.372 829.426 295.872 827.126 296.072 826.426C296.272 825.826 298.172 819.026 300.072 811.326C304.672 793.726 306.772 780.526 306.772 770.326C306.772 762.426 306.872 762.026 312.272 752.326C326.972 725.626 335.972 696.226 342.272 653.326C345.872 629.126 345.572 617.226 341.172 607.826C339.472 604.226 335.572 598.426 332.372 594.926C329.272 591.426 326.772 588.226 326.772 587.926C326.772 587.526 329.372 586.626 332.472 585.826C337.872 584.426 338.272 584.126 339.372 580.326C342.272 570.826 340.872 561.326 333.772 542.526C331.572 536.626 329.772 531.326 329.772 530.826C329.772 529.726 335.572 531.726 341.472 534.726ZM302.172 566.626C307.472 581.526 308.872 600.526 306.872 631.326C306.372 639.526 306.072 640.926 305.072 639.326C303.672 636.826 289.772 584.126 289.772 581.126C289.772 579.026 292.972 569.326 296.372 561.226C297.172 559.226 298.272 557.926 298.772 558.426C299.172 558.926 300.772 562.626 302.172 566.626ZM241.372 573.426L250.072 584.126L248.772 605.726C248.072 617.626 247.172 627.926 246.772 628.626C245.672 630.826 238.872 622.226 232.772 610.726C229.772 605.126 226.072 598.126 224.572 595.426C220.472 587.926 220.772 583.826 226.472 572.326C229.072 567.126 231.572 562.826 231.872 562.826C232.272 562.826 236.572 567.626 241.372 573.426ZM270.672 584.526C271.172 586.626 272.672 593.426 273.972 599.726C276.372 611.926 277.472 612.026 277.672 600.126C277.772 595.526 278.172 593.726 279.372 593.026C280.872 592.226 280.872 591.526 279.772 586.926C279.072 584.026 278.772 581.526 279.072 581.226C279.272 580.926 280.872 582.226 282.472 584.126C285.972 588.126 291.372 603.826 295.272 621.326C298.472 635.726 302.772 664.326 302.772 671.426C302.772 677.526 298.972 695.426 294.572 709.626C291.972 718.026 291.172 719.626 290.172 718.626C288.772 717.226 255.772 649.126 253.672 643.426C252.572 640.426 252.772 636.026 254.672 615.126C257.572 584.326 257.872 583.126 262.072 581.926C268.372 580.126 269.572 580.526 270.672 584.526ZM302.872 839.026C319.972 850.926 332.672 862.126 340.772 872.426C345.372 878.126 345.572 878.626 344.772 882.426C343.272 889.226 338.972 919.726 337.372 935.326C336.472 943.526 334.172 971.426 332.272 997.326C327.072 1066.03 325.972 1077.43 323.772 1084.73C321.472 1092.73 319.772 1102.73 319.772 1108.93C319.772 1115.03 316.572 1119.63 310.572 1122.53C308.072 1123.83 304.972 1126.23 303.672 1128.03C298.072 1136.23 290.872 1141.63 283.172 1143.23C278.672 1144.23 273.372 1150.03 274.172 1153.13C275.172 1157.03 277.172 1156.93 283.872 1152.63C287.772 1150.13 291.672 1148.33 294.272 1148.03C297.972 1147.63 298.672 1147.93 301.172 1150.83C304.972 1155.33 309.472 1164.73 311.272 1171.53C313.272 1179.13 313.072 1194.63 310.972 1202.33C309.372 1207.83 309.072 1208.33 306.772 1207.83C305.372 1207.53 300.672 1207.33 296.272 1207.33C286.772 1207.43 283.472 1208.73 269.172 1218.03C263.672 1221.63 257.172 1225.43 254.672 1226.63C250.672 1228.43 230.272 1235.83 229.172 1235.83C227.872 1235.83 229.372 1229.33 233.772 1214.93C241.472 1190.13 241.372 1188.93 232.672 1183.13C228.172 1180.13 228.272 1180.83 231.572 1169.73C235.872 1155.33 246.172 1100.53 249.672 1073.53C250.772 1065.13 252.372 1050.03 253.272 1039.83C254.072 1029.63 255.272 1016.13 255.772 1009.83C256.372 1003.53 257.672 987.926 258.772 975.326C263.772 918.226 264.072 916.326 271.872 897.826C275.972 887.926 276.772 886.826 284.972 878.826C293.672 870.426 295.172 867.626 292.572 865.026C289.972 862.426 286.472 863.726 281.072 869.426C266.872 884.426 257.172 908.126 253.272 936.826C252.472 943.126 250.172 968.326 248.272 992.826C241.872 1072.63 240.672 1083.33 232.272 1131.83C228.472 1154.03 225.972 1165.83 223.772 1171.73C222.072 1176.43 220.872 1181.13 221.172 1182.23C221.472 1183.43 224.172 1185.83 227.072 1187.73L232.472 1191.13L227.172 1207.03C222.772 1220.03 217.972 1231.83 216.172 1233.73C215.972 1233.93 211.872 1230.33 206.972 1225.73C196.672 1215.93 187.272 1209.43 172.772 1202.03C162.672 1196.83 162.172 1196.63 155.272 1197.03C149.972 1197.23 146.672 1198.13 141.572 1200.63C137.872 1202.33 134.372 1203.83 133.672 1203.83C132.872 1203.83 132.672 1201.13 132.972 1193.53C133.672 1179.63 137.472 1167.83 142.772 1162.73C151.772 1154.13 171.172 1155.13 183.272 1164.83C188.072 1168.63 188.272 1168.73 188.672 1166.53C189.472 1161.13 183.372 1155.33 174.072 1152.93C169.772 1151.73 169.772 1151.73 169.772 1147.23C169.772 1142.73 167.972 1138.43 163.272 1131.93C160.372 1127.93 160.272 1126.63 162.272 1112.73C167.372 1076.33 168.772 1045.53 168.772 970.826L168.872 908.326L188.972 893.826C225.372 867.526 244.772 855.026 263.072 846.226C272.172 841.826 292.272 833.926 294.372 833.826C294.972 833.826 298.772 836.126 302.872 839.026ZM139.072 907.126C148.272 909.026 156.072 910.826 156.472 911.126C157.672 912.426 155.072 937.326 153.372 940.626C150.672 945.726 144.872 950.826 138.072 954.126C130.572 957.626 125.672 957.526 114.772 953.826C100.072 948.726 95.4717 945.126 94.3717 937.626C93.6717 932.526 94.6717 928.326 98.3717 922.026L101.072 917.426L102.672 919.826C104.672 922.926 109.672 927.826 110.872 927.826C111.372 927.826 112.472 926.626 113.472 925.226C114.972 922.926 114.972 921.526 114.072 913.026C113.472 907.626 113.172 903.026 113.372 902.726C113.772 902.026 114.372 902.126 139.072 907.126ZM361.672 917.226C368.572 919.026 374.372 921.026 374.572 921.626C374.972 923.026 367.272 954.326 365.272 959.126C364.472 961.126 362.872 963.226 361.872 963.826C359.672 964.926 351.272 965.126 345.472 964.226L341.772 963.526L342.272 958.926C343.972 942.926 344.872 935.026 345.872 925.026C346.572 918.126 347.472 913.826 348.172 913.826C348.772 913.926 354.872 915.426 361.672 917.226ZM165.672 1210.93C179.072 1214.03 200.472 1229.43 205.472 1239.63C207.672 1244.23 207.972 1245.73 207.472 1251.13C206.072 1265.93 199.672 1276.63 190.572 1279.33C159.872 1288.43 105.472 1282.03 100.872 1268.63C97.5717 1259.33 100.772 1255.33 133.772 1227.63C140.072 1222.33 147.072 1216.13 149.272 1213.93C153.572 1209.43 156.772 1208.83 165.672 1210.93ZM307.472 1219.63C331.072 1239.63 344.472 1246.93 371.372 1254.33C385.872 1258.33 390.972 1260.73 392.572 1264.33C394.572 1268.63 390.972 1276.03 386.072 1277.93C383.672 1278.83 320.372 1276.63 299.672 1274.93C288.372 1274.03 283.672 1272.03 274.172 1263.83C262.372 1253.83 260.672 1252.83 256.772 1252.83C254.472 1252.83 251.972 1253.63 250.372 1254.93C247.872 1256.93 247.772 1257.33 248.372 1263.43C249.072 1269.73 249.072 1269.83 246.172 1270.83C244.372 1271.53 241.172 1271.63 237.272 1271.13L231.272 1270.33L230.072 1259.33C228.172 1241.33 227.972 1242.13 233.572 1241.43C247.272 1239.43 263.272 1233.13 276.972 1224.33C288.272 1216.93 291.372 1215.73 297.972 1216.13C302.672 1216.43 304.372 1217.03 307.472 1219.63Z" fill="#27496D"/>
<path d="M68.5717 127.126C62.9717 136.726 60.6717 145.526 60.0717 159.126C59.5717 170.126 59.3717 171.026 57.1717 172.526C55.8717 173.326 54.7717 174.426 54.7717 174.826C54.7717 175.226 59.7717 176.326 65.7717 177.226C76.5717 178.926 76.8717 178.926 79.6717 176.926C84.8717 173.226 85.3717 172.026 82.7717 169.326C81.5717 168.026 79.2717 166.626 77.6717 166.326C75.2717 165.726 74.5717 164.826 73.2717 160.526C72.4717 157.726 71.7717 154.826 71.7717 154.126C71.7717 152.126 70.6717 152.526 67.4717 155.526L64.4717 158.326L65.0717 151.326C65.3717 147.326 67.2717 139.226 69.2717 132.926C71.2717 126.726 72.7717 121.526 72.5717 121.226C72.3717 121.026 70.5717 123.726 68.5717 127.126Z" fill="#27496D"/>
<path d="M74.3717 183.426C73.4717 185.426 72.8717 187.226 73.0717 187.426C73.2717 187.626 75.9717 188.626 79.0717 189.526C84.2717 191.126 85.7717 192.426 96.2717 203.726C104.372 212.426 108.672 218.026 110.972 222.626C114.172 229.126 114.272 229.626 114.272 241.826C114.172 253.226 113.772 255.926 109.572 273.326C106.972 283.726 104.372 295.326 103.772 299.026L102.572 305.826L114.672 324.426C121.372 334.626 126.772 343.626 126.772 344.326C126.772 345.726 114.772 352.926 113.672 352.226C113.272 352.026 109.572 346.026 105.272 338.826C101.072 331.726 97.3717 325.826 97.1717 325.826C96.7717 325.826 98.1717 329.026 105.472 345.326L111.372 358.326H116.372C119.972 358.226 123.472 357.226 129.072 354.626C133.272 352.626 136.772 350.626 136.772 350.226C136.772 349.926 132.572 343.926 127.472 336.926C116.572 322.226 110.772 313.626 108.372 309.126C106.772 306.026 106.872 305.326 108.872 297.126C111.172 287.426 125.272 235.226 126.272 232.726C126.972 230.726 110.972 209.426 99.4717 197.226C91.2717 188.526 82.5717 181.626 78.1717 180.426C76.5717 179.926 75.7717 180.526 74.3717 183.426Z" fill="#27496D"/>
<path d="M188.272 199.426C181.672 203.926 177.772 210.026 176.172 218.226L175.472 222.226L180.472 218.026C184.372 214.626 200.772 204.726 206.272 202.426C206.772 202.126 205.972 200.826 204.472 199.426C200.572 195.826 193.572 195.826 188.272 199.426Z" fill="#27496D"/>
<path d="M234.472 197.526C233.372 198.626 233.672 202.326 234.972 203.626C236.372 205.026 256.772 205.326 256.772 204.026C256.772 202.626 253.472 200.026 249.472 198.326C245.872 196.826 235.672 196.226 234.472 197.526Z" fill="#27496D"/>
<path d="M208.572 258.526C202.772 262.126 201.972 270.826 206.872 275.726C209.372 278.326 210.772 278.826 214.472 278.826C222.072 278.826 227.772 271.226 225.172 264.526C224.872 263.626 223.872 263.226 222.672 263.526C220.172 264.226 217.772 262.126 217.772 259.226C217.772 257.226 217.272 256.826 214.572 256.826C212.772 256.826 210.072 257.626 208.572 258.526Z" fill="#27496D"/>
<path d="M250.772 257.626C248.072 258.526 245.772 261.126 245.772 263.226C245.772 269.526 253.972 272.426 257.372 267.326C259.172 264.626 258.972 261.326 256.972 261.326C256.272 261.326 254.872 260.326 253.972 259.226C253.072 258.026 251.572 257.326 250.772 257.626Z" fill="#27496D"/>
<path d="M280.472 791.626C276.972 795.526 279.472 803.826 284.172 803.826C285.372 803.826 287.672 802.526 289.172 800.926C291.772 798.226 291.872 797.726 290.872 794.526C289.172 789.526 283.672 788.026 280.472 791.626Z" fill="#27496D"/>
<path d="M116.472 880.126C114.872 881.226 114.772 881.826 115.872 884.126C117.272 887.126 117.872 887.326 119.572 885.626C121.072 884.126 121.072 882.626 119.472 880.526C118.472 879.026 117.972 878.926 116.472 880.126Z" fill="#27496D"/>
</g>
<defs>
<filter id="filter0_d_5_3" x="0" y="0" width="413.664" height="1299.07" filterUnits="userSpaceOnUse" color-interpolation-filters="sRGB">
<feFlood flood-opacity="0" result="BackgroundImageFix"/>
<feColorMatrix in="SourceAlpha" type="matrix" values="0 0 0 0 0 0 0 0 0 0 0 0 0 0 0 0 0 0 127 0" result="hardAlpha"/>
<feOffset dx="5" dy="-5"/>
<feGaussianBlur stdDeviation="5"/>
<feComposite in2="hardAlpha" operator="out"/>
<feColorMatrix type="matrix" values="0 0 0 0 0.152941 0 0 0 0 0.286275 0 0 0 0 0.427451 0 0 0 0.7 0"/>
<feBlend mode="normal" in2="BackgroundImageFix" result="effect1_dropShadow_5_3"/>
<feBlend mode="normal" in="SourceGraphic" in2="effect1_dropShadow_5_3" result="shape"/>
</filter>
</defs>
</svg>
