<svg width="300" height="559" viewBox="0 0 300 559" fill="none" xmlns="http://www.w3.org/2000/svg">
<path d="M33.6441 388.86C25.4342 356.557 12.774 325.367 6.2905 292.642C-0.193043 259.918 -0.23141 226.464 0.113867 193.164C-0.305321 182.272 1.06854 171.385 4.18049 160.938C7.82508 150.695 15.6897 141.258 26.1248 138.495L41.2786 237.667C44.2326 257.117 47.2634 276.798 54.5526 295.213C61.8418 313.628 73.7347 330.585 90.9985 340.214C85.3618 311.865 81.5178 283.188 79.4893 254.355C78.3384 238.587 79.1057 219.827 92.1111 210.965C103.62 202.947 120.616 207.129 130.475 217.219C140.335 227.308 144.862 241.35 147.739 255.122C151.882 274.957 153.609 295.712 162.509 313.896C165.54 320.15 173.52 326.633 178.392 321.569C179.154 320.678 179.787 319.683 180.272 318.615L233.79 212.845C238.7 203.101 243.381 190.555 236.399 182.154C231.104 175.824 221.705 175.325 213.38 175.21C160.254 174.355 107.432 167.011 56.0871 153.342C91.9576 135.733 132.815 132.395 172.906 131.091C205.861 130.017 240.389 130.477 269.545 145.938C271.109 146.633 272.499 147.669 273.612 148.969C274.807 150.8 275.484 152.922 275.568 155.107C280.552 195.31 273.615 236.092 255.619 272.386C243.726 296.249 227.268 317.617 214.646 341.135C179.888 405.74 175.975 482.775 183.955 555.705C151.307 552.176 130.245 561 97.4053 557.432C89.0036 556.511 75.5378 554.631 67.1744 555.936C62.2254 556.741 37.5189 558.966 32.6467 555.705C32.6467 555.705 43.2736 508.441 43.849 499.08C46.1276 462.034 42.6856 424.858 33.6441 388.86V388.86Z" fill="url(#paint0_linear_18_164)"/>
<path d="M174.364 366.222C171.333 366.222 180.694 346.465 181.231 345.582C188.124 334.378 196.021 323.822 204.825 314.047C212.498 305.185 220.171 296.054 228.572 287.883C236.245 280.21 246.105 270.12 258.189 272.537C267.282 274.455 272.729 284.622 272.346 293.944C271.962 303.267 267.167 311.707 262.141 319.571C252.051 335.339 241.232 350.263 230.26 365.608L174.364 366.222Z" fill="white"/>
<path d="M104.426 376.851C107.342 377.503 102.239 356.173 101.932 355.214C97.48 342.845 91.9202 330.904 85.3205 319.535C79.5659 309.215 74.0798 298.78 67.4428 288.844C61.3429 279.867 53.9003 267.859 41.5854 267.82C32.3013 267.82 24.8586 276.644 23.3241 285.813C21.7895 294.982 24.7436 304.305 28.0429 313.013C34.6799 330.546 42.1992 347.541 49.8337 364.536L104.426 376.851Z" fill="white"/>
<path d="M81.1773 334.151H199.492C203.523 334.044 207.535 334.732 211.3 336.177C215.065 337.621 218.508 339.793 221.433 342.568C224.358 345.343 226.708 348.668 228.347 352.352C229.987 356.036 230.885 360.006 230.989 364.037V365.418C230.989 365.418 208.431 457.492 207.971 488.414C207.971 505.332 213.303 555.935 213.303 555.935H67.2127C67.2127 555.935 73.9648 503.069 73.8114 485.345C73.5812 455.152 49.6803 365.418 49.6803 365.418C49.604 361.388 50.3226 357.381 51.7949 353.629C53.2672 349.876 55.4644 346.45 58.2611 343.546C61.0577 340.643 64.399 338.318 68.094 336.707C71.7891 335.095 75.7655 334.226 79.7962 334.151H81.1773Z" fill="white"/>
<path d="M299.009 160.248C300.073 156.966 300.284 153.468 299.623 150.082C298.622 147.034 296.723 144.359 294.175 142.409C291.045 139.714 287.36 137.74 283.383 136.626C279.405 135.513 275.232 135.286 271.157 135.964C269.458 136.235 267.844 136.891 266.438 137.882C265.165 138.969 264.088 140.267 263.254 141.718C259.11 148.202 254.852 156.028 257.538 163.24C259.457 166.711 261.558 170.079 263.829 173.33C265.057 175.67 265.671 178.279 266.822 180.658C269.776 186.643 281.131 194.661 288.075 190.21C291.528 188.024 292.833 180.581 294.099 176.975C295.863 171.604 297.551 165.964 299.009 160.248Z" fill="#FCA89E"/>
<path d="M3.9888 149.963C2.9045 146.685 2.69296 143.181 3.37498 139.796C4.37631 136.748 6.27517 134.074 8.82268 132.124C11.9532 129.429 15.6376 127.455 19.6152 126.341C23.5928 125.227 27.7665 125.001 31.8412 125.678C33.5398 125.95 35.1539 126.606 36.5599 127.597C37.8327 128.684 38.9097 129.982 39.7442 131.433C43.8491 137.917 48.1459 145.705 45.4604 152.955C43.5406 156.426 41.4405 159.794 39.1687 163.045C37.9411 165.385 37.3272 167.994 36.1763 170.373C33.2223 176.357 21.8665 184.376 14.8842 179.925C11.4698 177.739 10.1654 170.296 8.8994 166.69C7.09629 161.319 5.40827 155.679 3.9888 149.963Z" fill="#FCA89E"/>
<path d="M158.558 351.414C158.124 354.904 156.347 358.087 153.603 360.287C150.859 362.486 147.365 363.529 143.864 363.192C129.363 362.502 128.289 351.414 128.289 351.414V293.868H158.558V351.414Z" fill="#FCA89E"/>
<path d="M128.289 322.296C128.289 322.296 147.24 351.836 158.558 337.642V314.623L128.289 322.296Z" fill="url(#paint1_linear_18_164)"/>
<path d="M115.551 307.643C123.224 331.122 160.821 331.813 173.443 313.168C180.771 302.349 181.653 288.269 179.351 275.417C177.323 262.733 173.446 250.415 167.842 238.856C164.005 231.567 160.169 225.084 151.23 224.048C141.183 223.391 131.157 225.628 122.342 230.493C113.988 234.997 107.449 242.252 103.834 251.028C100.219 259.803 99.7505 269.558 102.508 278.64C104.007 283.192 105.921 287.596 108.224 291.799C111.106 296.866 113.557 302.166 115.551 307.643Z" fill="#FCA89E"/>
<path d="M177.97 236.554C176.356 240.459 173.982 244.006 170.988 246.989C164.82 252.885 156.956 256.696 148.507 257.884C136.192 259.841 123.685 257.654 111.255 256.656C110.97 258.652 110.133 260.529 108.838 262.074C107.543 263.62 105.842 264.773 103.927 265.403C105.806 274.076 108.306 282.602 111.408 290.916C114.478 299.049 118.851 306.606 122.15 314.548C111.907 307.489 104.042 295.366 96.5615 285.66C92.6017 281.014 89.4269 275.753 87.1623 270.084C86.0292 267.244 85.5912 264.175 85.8848 261.132C86.1785 258.089 87.1952 255.16 88.8503 252.59C90.6807 249.562 92.7188 246.665 94.9502 243.919C98.3687 241.403 100.766 237.74 101.702 233.6C102.163 229.264 99.7074 225.083 99.3621 220.709C99.2503 220.091 99.3588 219.453 99.669 218.906C100.054 218.497 100.546 218.205 101.088 218.062L109.951 214.763C109.147 212.919 108.102 211.19 106.843 209.622C112.045 206.873 117.882 205.549 123.762 205.786C122.568 203.03 121.006 200.449 119.12 198.113C121.098 197.321 123.226 196.972 125.354 197.091C127.481 197.211 129.557 197.795 131.435 198.803C135.578 200.415 139.568 202.409 143.558 204.366C143.928 201.041 143.992 197.69 143.749 194.353C149.016 193.923 154.257 195.438 158.481 198.611C162.778 201.025 166.663 204.107 169.99 207.742C172.36 210.409 174.138 213.547 175.208 216.949C176.282 220.786 178.239 223.932 179.044 227.653C179.58 230.661 179.206 233.76 177.97 236.554Z" fill="#473F47"/>
<path d="M107.418 292.22C106.095 292.442 104.829 292.926 103.696 293.644C102.563 294.362 101.585 295.3 100.82 296.402C99.9814 298.181 99.8578 300.213 100.474 302.08C101.129 303.9 102.104 305.589 103.352 307.067C104.012 307.958 104.801 308.747 105.692 309.407C107.22 310.281 108.958 310.719 110.718 310.673C112.085 310.75 113.455 310.75 114.823 310.673C115.517 310.662 116.2 310.492 116.818 310.175C117.475 309.687 117.959 309.001 118.199 308.218C119.158 305.355 119.158 302.257 118.199 299.394C117.571 296.697 116.248 294.211 114.362 292.182C112.636 290.456 109.759 291.568 107.418 292.22Z" fill="#FCA89E"/>
<path d="M234.442 271.657C231.897 277.956 230.808 284.75 231.258 291.529C231.878 296.018 233.825 300.219 236.848 303.595C239.872 306.97 243.834 309.366 248.228 310.474C252.621 311.583 257.246 311.354 261.509 309.818C265.772 308.281 269.479 305.506 272.154 301.849C275.718 296.132 277.984 289.701 278.791 283.012C284.776 251.554 290.198 220.019 295.058 188.407C289.456 186.91 272.039 179.007 267.32 182.153C262.602 185.299 257.998 205.172 255.811 211.003C251.975 221.17 248.138 231.336 244.686 241.694C241.233 251.132 239.161 262.756 234.442 271.657Z" fill="white"/>
<path d="M16.8024 272.653C17.0674 279.442 18.8781 286.082 22.0967 292.065C24.516 295.885 28.0187 298.897 32.1576 300.717C36.2965 302.537 40.8839 303.083 45.3342 302.284C49.7846 301.485 53.8959 299.379 57.1437 296.233C60.3914 293.087 62.6281 289.045 63.5683 284.623C64.4965 277.94 63.9064 271.135 61.8419 264.712C54.3481 233.586 46.3044 202.626 37.7109 171.832C31.9946 172.753 13.0427 172.638 9.85849 177.548C6.67427 182.459 10.7792 202.178 11.1629 208.623C11.8534 219.442 12.6847 230.248 13.6566 241.041C14.5389 251.131 17.4162 262.563 16.8024 272.653Z" fill="white"/>
<path d="M278.293 0H24.6672V163.661H278.293V0Z" fill="#7f78d2"/>
<defs>
<linearGradient id="paint0_linear_18_164" x1="343.703" y1="987.417" x2="-233.102" y2="-937.465" gradientUnits="userSpaceOnUse">
<stop offset="0.01"/>
<stop offset="0.08" stop-opacity="0.69"/>
<stop offset="0.21" stop-opacity="0.32"/>
<stop offset="1" stop-opacity="0"/>
</linearGradient>
<linearGradient id="paint1_linear_18_164" x1="150.041" y1="273.957" x2="132.892" y2="419.089" gradientUnits="userSpaceOnUse">
<stop offset="0.01"/>
<stop offset="0.08" stop-opacity="0.69"/>
<stop offset="0.21" stop-opacity="0.32"/>
<stop offset="1" stop-opacity="0"/>
</linearGradient>
</defs>
</svg>
