<svg width="415" height="523" viewBox="0 0 415 523" fill="none" xmlns="http://www.w3.org/2000/svg">
<g clip-path="url(#clip0_44_2)">
<path d="M402.007 86.1967C400.617 91.685 395.925 95.9194 390.625 97.9106C385.324 99.9018 379.481 99.9243 373.857 99.2685C366.808 98.4467 359.757 96.5415 353.824 92.6455C347.893 88.7495 343.168 82.6841 341.933 75.6953C340.698 68.706 343.413 60.9004 349.346 57.0049L345.638 55.7495C336.597 51.9385 325.533 55.4922 318.941 62.7602C312.349 70.0288 309.794 80.2846 310.173 90.0893C310.552 99.894 313.592 109.392 317.012 118.589C319.258 124.633 322.011 131.018 327.503 134.397C332.373 137.395 338.464 137.425 344.166 136.998C358.551 135.92 373.18 132.309 384.7 123.627C396.219 114.946 404.066 100.474 402.007 86.1967Z" fill="#8B949E" fill-opacity="0.24"/>
<path d="M117.405 1.55118C113.064 4.8766 110.533 9.99385 107.364 14.3547C102.519 21.5499 98.1131 29.0307 94.1694 36.7566C85.1994 54.5561 77.936 73.1655 72.4766 92.3353C64.2062 97.858 55.9146 103.931 51.3998 113.059C44.465 127.155 42.512 143.186 45.8593 158.535C47.8456 171.178 52.9228 183.135 60.6403 193.345C65.8964 200.628 72.7682 206.479 80.1737 211.483C78.2542 209.447 76.407 207.343 74.5753 205.228C67.3618 197.401 61.0572 183.999 58.9195 177.95C54.5945 164.104 54.1303 155.592 53.0995 146.029C52.391 133.008 53.9622 124.736 57.2771 114.098C59.6046 107.16 66.0105 99.6259 72.3129 92.8979C72.2311 93.189 72.1399 93.4773 72.0592 93.769C72.3052 93.2998 72.5611 92.8359 72.8088 92.3672C73.0231 92.1396 73.2385 91.9045 73.4522 91.6791C73.3092 91.7743 73.1656 91.8728 73.022 91.9682C87.0244 65.5639 102.474 39.9528 119.301 15.2521C119.261 39.4141 116.784 65.3512 117.109 89.9832C119.96 74.4106 122.509 58.7867 124.948 43.1447C126.594 31.8756 128.764 20.5388 128.478 9.11026C128.92 2.56467 123.49 -2.74342 117.405 1.55118Z" fill="#F0F6FC"/>
<path d="M245.697 55.5483C244.449 45.0651 244.487 34.1003 240.816 24.1046C239.223 19.2943 233.867 15.866 229.152 18.8235C226.255 20.6674 224.722 23.8495 223.174 26.797C220.745 31.4511 218.455 36.1755 216.193 40.912C209.97 53.8965 203.371 66.813 198.844 80.4747C198.888 80.0484 198.932 79.621 198.975 79.1941C199.563 73.1989 199.562 66.9797 197.287 61.3092C188.441 35.9292 163.882 36.7562 143.496 47.7797C135.319 52.6682 128.776 59.7965 122.217 66.6004C132.849 59.8079 143.252 51.897 155.952 49.6021C173.272 44.976 186.488 48.157 194.65 64.8041C197.266 69.6503 198.024 75.2325 198.8 80.6183C197.43 84.7046 196.283 88.8622 195.363 93.0726C205.608 73.0648 220.095 55.7047 230.869 36.006C231.284 35.3042 231.687 34.5943 232.094 33.8872C235.533 52.5123 238.829 71.1644 243.104 89.6264C244.678 96.8088 246.18 104.007 247.803 111.178C247.813 110.503 247.828 109.826 247.84 109.15C248.18 91.2563 247.465 73.3579 245.697 55.5483Z" fill="#F0F6FC"/>
<path d="M249.701 105.611C253.298 114.37 255.19 122.278 255.183 130.673C255.279 138.294 255.395 141.724 253.706 148.059C251.366 156.919 245.771 164.436 242.05 169.113C242.115 169.029 242.367 168.703 242.748 168.208C236.49 175.865 192.547 219.082 193.696 209.618C194.469 203.261 232.772 255.248 220.019 272.228C218.241 274.596 215.215 275.694 212.711 277.272C221.692 274.773 183.417 219.139 191.679 214.91C212.119 203.891 261.93 169.074 262.276 144.164C262.243 130.391 258.205 116.554 249.701 105.611Z" fill="#F0F6FC"/>
<path d="M110.374 101.369C98.3543 101.667 98.386 119.276 110.374 119.606C122.394 119.308 122.362 101.699 110.374 101.369Z" fill="#F0F6FC"/>
<path d="M196.757 106.942C184.737 107.24 184.769 124.849 196.757 125.18C208.777 124.882 208.745 107.273 196.757 106.942Z" fill="#F0F6FC"/>
<path d="M151.909 144.728C148.451 144.19 144.953 143.948 141.454 144.005C145.038 144.995 148.634 145.988 152.137 147.235C152.145 147.157 152.248 147.245 152.368 147.344C149.826 150.324 146.131 153.825 143.178 156.933C142.172 157.998 141.079 158.978 139.911 159.862C138.297 153.954 137.636 147.247 136.15 141.141C135.886 146.864 135.753 152.604 136.059 158.328C136.02 163.849 139.01 165.813 143.369 161.937C147.371 158.283 150.953 154.194 154.047 149.746C156.31 147.101 155.235 145.119 151.909 144.728Z" fill="#F0F6FC"/>
<path d="M147.805 176.484C143.507 177.042 139.138 176.519 135.094 174.964C130.526 173.117 125.413 168.764 120.823 165.522C124.567 170.058 128.431 174.979 133.937 177.418C136.553 178.448 139.357 178.91 142.165 178.775C144.973 178.64 147.72 177.91 150.224 176.635C150.974 176.241 151.694 175.793 152.378 175.293C150.901 175.854 149.368 176.253 147.805 176.484V176.484Z" fill="#F0F6FC"/>
<path d="M407.18 60.4923C402.788 52.9214 396.625 46.5292 389.219 41.8644C381.362 36.3663 371.485 33.659 362.122 36.5745C360.4 36.8142 349.19 41.2055 353.586 40.0671C360.198 38.8071 367.384 37.8121 374.093 40.455C387.807 47.0861 397.394 61.0442 400.377 76.5146C401.195 81.8293 400.094 87.2616 397.27 91.838C393.913 97.202 389.236 101.615 383.686 104.655C378.136 107.694 371.899 109.259 365.571 109.199C352.914 108.627 340.617 105.087 331.467 94.4694C328.017 89.939 322.664 77.8957 324.685 70.4229C327.801 56.3671 341.165 49.7298 355.183 51.0434C340.307 46.1244 323.602 52.1821 317.398 67.0365C313.09 77.1692 315.605 89.0708 320.202 98.6805C334.475 124.927 374.702 133.992 397.731 114.042C414.974 100.495 419.156 79.0823 407.18 60.4923Z" fill="#F0F6FC"/>
<path d="M159.646 222.835C147.297 225.332 134.948 227.829 122.599 230.327C111.954 282.174 101.309 334.021 90.6631 385.868C156.407 430.468 184.224 252.07 159.646 222.835Z" fill="#8B949E" fill-opacity="0.24"/>
<path d="M42.8003 440.579C38.893 438.877 35.2706 436.585 32.0601 433.782C28.901 431.066 26.2814 427.779 24.3384 424.093C23.411 422.296 22.6925 420.4 22.1968 418.44C21.7309 416.513 21.5159 414.534 21.5572 412.551C21.673 408.595 22.6663 404.714 24.4654 401.189C26.285 397.61 28.6132 394.314 31.3775 391.403C34.2072 388.444 37.3003 385.748 40.6187 383.35C47.2925 378.353 54.8101 373.976 61.8531 368.146C68.9539 362.314 75.0986 355.407 80.064 347.676C85.0571 339.951 88.9382 331.561 91.5933 322.755C97.0657 304.978 97.2506 285.993 92.1255 268.113C91.3814 265.987 90.6395 263.866 89.8999 261.75C89.0933 259.671 88.2085 257.689 87.3443 255.763C85.606 251.917 83.8951 248.302 82.5718 244.749C81.9173 243.021 81.362 241.258 80.9087 239.467C80.4825 237.78 80.2079 236.058 80.0884 234.322C79.8019 231.003 80.2848 227.662 81.4995 224.56C82.6852 221.664 84.8333 219.266 87.5816 217.77C90.7377 216.168 94.1847 215.218 97.7163 214.979C101.608 214.656 105.513 214.529 109.417 214.601C113.423 214.582 119.784 228.535 123.775 228.516C155.708 228.314 166.409 212.284 198.465 211.834C167.086 209.256 151.429 208.309 116.229 206.149C114.029 206.015 111.825 205.881 109.617 205.747C107.429 205.617 105.167 205.468 102.808 205.396C97.7324 205.106 92.6422 205.593 87.7134 206.839C84.9204 207.609 82.2693 208.824 79.8618 210.436C77.3461 212.14 75.1812 214.311 73.4848 216.832C71.8665 219.262 70.6602 221.942 69.9145 224.765C69.2021 227.426 68.8171 230.164 68.768 232.919C68.7148 235.59 68.935 238.26 69.4252 240.886C69.8974 243.369 70.5399 245.816 71.3481 248.21C72.9038 252.873 74.8198 257.108 76.5219 261.147C77.3549 263.173 78.226 265.119 78.8344 267.09L79.8188 270.041C80.1782 271.014 80.4782 272.008 80.7173 273.018L81.4614 276.042C81.7398 277.042 81.9653 278.057 82.1372 279.081C82.4438 281.136 82.8706 283.173 83.0991 285.238C84.9723 301.763 82.2959 318.486 75.3589 333.601C72.0212 340.949 67.6896 347.804 62.4858 353.973C61.2334 355.512 59.8974 356.98 58.4839 358.371L56.3774 360.451C55.685 361.152 54.9799 361.841 54.2241 362.487C51.2543 365.118 48.0776 367.604 44.8715 370.114C38.4702 375.132 31.8705 380.261 26.6284 386.785C24.02 389.986 21.8411 393.515 20.1469 397.28C19.3192 399.151 18.6448 401.085 18.1303 403.065C17.6398 405.037 17.3332 407.05 17.2143 409.078C17.0072 413.049 17.6815 417.017 19.1889 420.697C19.9021 422.459 20.7979 424.143 21.8618 425.719C22.8779 427.257 24.0296 428.702 25.3032 430.036C27.7423 432.601 30.5355 434.805 33.5981 436.58C36.4887 438.288 39.5796 439.631 42.8003 440.579V440.579Z" fill="#F0F6FC"/>
<path d="M93.0557 408.025C101.553 395.258 108.271 381.172 110.718 366.156C112.439 351.445 109.894 337.32 107.111 323.324C103.861 336.502 100.787 351.841 98.1318 366.763C95.5263 381.688 93.3545 396.236 93.0557 408.025Z" fill="#F0F6FC"/>
<path d="M273.059 443.771C275.64 443.502 278.09 442.494 280.113 440.868C282.142 439.072 283.401 436.566 283.631 433.867C283.848 431.223 283.583 428.563 282.848 426.015C282.157 423.528 281.325 421.083 280.355 418.691C276.747 409.203 273.076 399.726 269.342 390.26C261.865 371.335 254.063 352.518 245.936 333.81C229.79 297.712 213.344 265.101 196.619 231.299C210.29 265.739 227.056 305.905 243.821 344.361C252.203 363.589 260.586 382.39 268.582 399.833C270.593 404.189 272.565 408.46 274.5 412.648C275.476 414.734 276.44 416.797 277.393 418.836C278.347 420.886 279.325 422.86 280.121 424.84C280.935 426.768 281.539 428.779 281.921 430.837C282.308 432.797 282.227 434.82 281.686 436.742C281.095 438.611 279.926 440.244 278.347 441.406C276.756 442.534 274.959 443.337 273.059 443.771V443.771Z" fill="#F0F6FC"/>
<path d="M157.078 317.03C153.802 331.636 149.919 345.114 147.809 358.914C147.09 365.686 146.806 372.388 146.467 379.234C146.139 386.08 145.687 393.034 144.708 400.161C148.674 394.034 151.973 387.501 154.549 380.672C157.275 373.404 159.22 365.866 160.351 358.187C161.464 350.804 161.719 343.318 161.113 335.877C160.625 329.441 159.267 323.102 157.078 317.03V317.03Z" fill="#F0F6FC"/>
<path d="M274.649 394.629C283.264 394.652 291.745 392.506 299.312 388.388C307.042 384.216 313.805 378.461 319.16 371.498C321.885 367.989 324.239 364.208 326.187 360.214C328.121 356.207 329.704 352.04 330.917 347.758C333.298 339.163 334.375 330.259 334.113 321.344C333.855 312.451 332.523 303.621 330.147 295.047C327.782 286.562 324.686 278.298 320.894 270.349C317.158 262.504 312.999 254.868 308.435 247.475C306.199 243.807 303.868 240.088 301.199 236.422C298.483 232.624 295.379 229.117 291.938 225.96C290.532 224.722 289.055 223.567 287.515 222.501C286.766 221.952 285.903 221.453 285.097 220.939C284.25 220.48 283.428 219.977 282.555 219.576C280.835 218.727 279.056 218.006 277.23 217.42L275.666 216.966C274.93 216.747 274.181 216.575 273.423 216.452L271.19 216.024C270.461 215.935 269.744 215.897 269.024 215.832L267.948 215.743C267.595 215.723 267.265 215.745 266.922 215.744L264.893 215.77C264.251 215.822 263.64 215.914 263.016 215.984L262.086 216.096C261.786 216.144 261.513 216.218 261.226 216.277L259.526 216.652L257.969 217.146L257.196 217.393L256.487 217.694L255.079 218.297L252.303 219.624L249.369 221.066L248.624 221.439L248.312 221.711L247.715 222.257C247.326 222.622 246.96 222.988 246.615 223.356C249.541 225.247 252.462 227.134 255.379 229.019L256.457 229.718C256.808 229.95 257.083 230.176 257.398 230.405L259.223 231.767L262.814 234.448C263.411 234.89 264.006 235.329 264.519 235.78C265.207 236.43 265.344 236.538 265.649 236.816L267.333 238.323C268.454 239.331 269.465 240.45 270.544 241.507C274.714 245.898 278.368 250.752 281.433 255.975C287.688 266.529 291.321 278.43 292.026 290.678C292.614 303.239 290.213 315.76 285.021 327.213C279.718 339.129 271.599 349.578 261.362 357.661C271.923 350.763 280.74 341.51 287.123 330.63C293.945 319.153 297.9 306.2 298.653 292.87C299.303 278.981 296.4 265.156 290.217 252.702C287.124 246.395 283.269 240.493 278.736 235.127C277.559 233.816 276.411 232.474 275.194 231.194L273.312 229.326L272.84 228.86L272.604 228.627L272.485 228.51L272.527 228.545C272.599 228.625 272.563 228.588 272.572 228.596V228.594C272.573 228.586 272.582 228.587 272.582 228.587C272.588 228.589 272.562 228.582 272.569 228.565C272.572 228.561 272.576 228.557 272.58 228.555L272.592 228.551L273.136 228.715C273.401 228.791 273.658 228.905 273.92 228.996C276.021 229.767 278.02 230.792 279.873 232.048C283.819 234.885 287.3 238.318 290.191 242.224C293.284 246.243 296.131 250.749 298.989 255.319C304.629 264.217 309.671 273.482 314.08 283.05C318.327 292.241 321.465 301.905 323.428 311.838C325.274 321.369 325.602 331.132 324.401 340.765C323.273 349.951 320.293 358.812 315.641 366.813C311.105 374.377 304.997 380.879 297.732 385.879C290.859 390.62 282.938 393.622 274.649 394.629V394.629Z" fill="#F0F6FC"/>
<path d="M80.1191 413.826C78.9795 414.476 77.789 415.186 76.5595 415.956C67.0791 421.836 54.9492 430.886 42.7695 440.666C38.7998 443.856 34.8291 447.116 30.9395 450.366C18.9492 460.406 7.75977 470.396 0 477.856C7.58643 467.89 15.7081 458.342 24.3291 449.256C26.25 447.226 30.8398 442.676 36.0996 437.516C44.6992 429.096 55.0693 419.096 58.4395 416.026L64.2197 416.086L75.3799 416.196L80.1191 413.826Z" fill="#F0F6FC"/>
<path d="M292.115 446.224C277.734 431.781 260.198 420.764 242.115 411.548C231.573 406.715 220.5 403.235 209.351 400.073L170.649 407.79C171.772 407.928 172.882 408.077 173.962 408.246C190.158 411.063 205.981 415.856 221.603 420.915C237.555 426.061 248.663 432.254 265.838 442.59C290.411 457.558 318.107 488.323 341.37 518.237C342.436 519.6 343.502 520.963 344.568 522.326C330.471 494.851 313.757 468.412 292.115 446.224Z" fill="#F0F6FC"/>
<path d="M167.239 397.876L95.5195 412.176L82.25 414.826L76.5596 415.956L75.3799 416.196L57.46 419.766C59.6992 418.476 61.96 417.246 64.2197 416.086C71.2995 412.395 78.6915 409.336 86.3096 406.946C86.5196 406.876 86.7295 406.816 86.9395 406.756C113.689 398.416 144.649 395.086 167.239 397.876Z" fill="#F0F6FC"/>
<path d="M275.944 397.731C268.858 401.526 261.235 404.218 253.338 405.716C249.637 406.438 245.898 406.944 242.138 407.23C239.009 407.573 235.845 407.394 232.774 406.7C231.627 406.484 230.526 406.071 229.52 405.479C228.359 404.731 227.341 403.781 226.515 402.673C225.505 401.348 224.642 399.916 223.944 398.403C223.168 396.788 222.528 395.112 222.029 393.392C219.748 385.546 220.429 377.135 223.944 369.759C220.624 373.084 218.026 377.058 216.313 381.433C214.6 385.808 213.809 390.49 213.989 395.185C214.089 397.73 214.461 400.257 215.099 402.723C215.787 405.395 216.89 407.943 218.369 410.274C219.19 411.554 220.153 412.738 221.239 413.803C222.371 414.907 223.637 415.863 225.008 416.65C227.568 418.088 230.392 418.992 233.311 419.307C238.17 419.734 243.066 419.217 247.728 417.783C251.914 416.622 255.942 414.954 259.724 412.816C266.285 409.193 271.855 404.013 275.944 397.731V397.731Z" fill="#F0F6FC"/>
<path d="M68.5508 374.483C67.5089 382.454 65.2584 390.219 61.877 397.511C60.3093 400.94 58.5426 404.274 56.5859 407.497C55.0428 410.241 53.0541 412.709 50.7012 414.801C49.8585 415.608 48.8821 416.262 47.8154 416.735C46.5308 417.244 45.1655 417.518 43.7842 417.544C42.1181 417.594 40.4516 417.461 38.8145 417.148C37.0503 416.838 35.3149 416.383 33.626 415.786C25.9187 413.072 19.4778 407.62 15.5283 400.467C16.2978 405.103 18.016 409.529 20.5755 413.469C23.1349 417.41 26.4804 420.779 30.4023 423.367C32.5288 424.768 34.7996 425.937 37.1758 426.854C39.7491 427.851 42.4632 428.438 45.2188 428.593C46.738 428.671 48.2613 428.578 49.7598 428.315C51.3159 428.038 52.8308 427.565 54.2686 426.908C56.9281 425.665 59.3078 423.895 61.2637 421.706C64.4403 418.004 66.8707 413.723 68.4209 409.099C69.9137 405.019 70.9034 400.772 71.3682 396.453C72.2436 389.01 71.2761 381.465 68.5508 374.483V374.483Z" fill="#F0F6FC"/>
</g>
<defs>
<clipPath id="clip0_44_2">
<rect width="414.004" height="522.326" fill="white"/>
</clipPath>
</defs>
</svg>
