<svg width="277" height="373" viewBox="0 0 277 373" fill="none" xmlns="http://www.w3.org/2000/svg">
<path d="M264.5 0.5H83.5V22H245L169 146H187.5C203.753 152.12 212.668 155.807 225 167C247.532 190.388 253.517 204.025 255.5 229C258.755 247.008 257.983 258.07 251 280L269.5 286.5L276 257C276.739 220.056 273.065 202.415 259 177.5C242.571 153.602 230.562 143.065 202.5 131L264.5 30.5V0.5Z" fill="#F0F6FC"/>
<path d="M176 368L167.5 349.5C136.334 353.253 120.101 352.702 94 345.5C72.2066 336.384 60.7434 329.679 43.5 311C28.6004 288.878 23.4785 275.528 20 251L90 252.5C94.9353 271.108 101.703 278.539 117.5 289C135.245 292.271 144.716 292.931 158.5 286.5C168.662 282.526 173.754 278.62 181 266.5C187.724 250.221 188.854 240.757 184.5 223C177.242 207.246 170.727 200.837 156 192.5L88 190V184.5L152 78H28H8.5V99H117.5L69 176V211H148C158.805 216.135 162.734 220.667 167.5 230.5C168.987 244.74 167.706 251.187 162 260C156.104 268.821 151.007 271.279 140 273C125.112 273.414 117.825 269.66 108 251V233H0V251C3.44038 268.343 5.82382 277.742 11 294C17.6523 309.782 22.6177 317.27 32.5 329.5C45.9374 342.598 54.0957 348.138 69 357C89.1479 365.957 101.463 368.61 124 372C143.541 372.324 154.987 371.286 176 368Z" fill="#F0F6FC"/>
</svg>
