<svg width="16" height="20" viewBox="0 0 16 20" fill="none" xmlns="http://www.w3.org/2000/svg">
<path d="M5.40952 11.1333L7.61905 9.45714L9.81905 11.1333L8.98095 8.41905L11.1905 6.66667H8.48571L7.61905 3.99048L6.75238 6.66667H4.04762L6.24762 8.41905L5.40952 11.1333ZM15.2381 7.61905C15.2381 3.40952 11.8286 0 7.61905 0C3.40952 0 0 3.40952 0 7.61905C0 9.55238 0.72381 11.3048 1.90476 12.6476V20L7.61905 18.0952L13.3333 20V12.6476C14.5614 11.2605 15.2389 9.47167 15.2381 7.61905ZM7.61905 1.90476C10.7714 1.90476 13.3333 4.46667 13.3333 7.61905C13.3333 10.7714 10.7714 13.3333 7.61905 13.3333C4.46667 13.3333 1.90476 10.7714 1.90476 7.61905C1.90476 4.46667 4.46667 1.90476 7.61905 1.90476Z" fill="black"/>
</svg>
